<svg xmlns="http://www.w3.org/2000/svg" viewBox="0 0 54 61.997"><defs><style>.a{fill:#fff;}.b{fill:#3f3a34;}.c{fill:#80cbc4;}.d{fill:#e56565;}</style></defs><g transform="translate(-5 -1.003)"><path class="a" d="M42,12a10,10,0,1,0-17.68,6.4A16.329,16.329,0,0,1,28,28.893V30h8V28.9a17.635,17.635,0,0,1,3.907-10.777A9.945,9.945,0,0,0,42,12Z"/><path class="b" d="M32,14a3,3,0,1,0-3-3A3,3,0,0,0,32,14Zm0-4a1,1,0,1,1-1,1A1,1,0,0,1,32,10Z"/><path class="b" d="M32,35a2,2,0,0,1-2-2H28a4,4,0,0,0,8,0H34A2,2,0,0,1,32,35Z"/><path class="c" d="M56.7,34a6.957,6.957,0,0,0-2.824-7.811,6,6,0,0,0-4.071-6.912,8.039,8.039,0,0,0-6.864-6.216c.033-.352.055-.706.055-1.064a11,11,0,0,0-21.893-1.555,11.325,11.325,0,0,0-.048,2.618,8.04,8.04,0,0,0-6.868,6.217,6,6,0,0,0-4.071,6.912A6.957,6.957,0,0,0,7.3,34a8.989,8.989,0,0,0,2.788,14.1,8.013,8.013,0,0,0,4.937,6.3A8.986,8.986,0,0,0,32,58.1a8.986,8.986,0,0,0,16.979-3.7,8.014,8.014,0,0,0,4.936-6.3A8.989,8.989,0,0,0,56.7,34ZM23.089,10.717a9.043,9.043,0,0,1,7.88-7.659,9,9,0,0,1,8.148,14.447A19.518,19.518,0,0,0,35.471,25H33V16H31v9H28.568a16.857,16.857,0,0,0-3.48-7.241A8.942,8.942,0,0,1,23.089,10.717ZM28.892,27h6.229A16.7,16.7,0,0,0,35,28.9V29H29v-.107A18.552,18.552,0,0,0,28.892,27ZM52.6,46.493l-.587.236-.038.632a6.008,6.008,0,0,1-3.151,4.912A9.011,9.011,0,0,0,40,45v2a7,7,0,1,1-7,7V43H31V54a7,7,0,1,1-7-7V45a9.013,9.013,0,0,0-8.83,7.273,6.008,6.008,0,0,1-3.151-4.912l-.038-.632-.587-.236A6.983,6.983,0,0,1,8.264,36a6.992,6.992,0,0,0,10.4,1.216l-1.334-1.49A5,5,0,1,1,10.875,28.1,5.994,5.994,0,0,0,16,31V29a4,4,0,1,1,4-4h2a6,6,0,0,0-5.658-5.983,6.02,6.02,0,0,1,5.085-3.964,10.938,10.938,0,0,0,2.126,3.989A15.339,15.339,0,0,1,27,28.893V31H37V28.9a16.575,16.575,0,0,1,3.7-10.164,10.906,10.906,0,0,0,1.868-3.68,6.021,6.021,0,0,1,5.094,3.965A6,6,0,0,0,42,25h2a4,4,0,1,1,4,4v2a5.994,5.994,0,0,0,5.125-2.9,5,5,0,1,1-6.459,7.623l-1.334,1.49A6.992,6.992,0,0,0,55.736,36,6.982,6.982,0,0,1,52.6,46.493Z"/><rect class="d" width="2" height="2" transform="translate(31 39)"/><rect class="d" width="2" height="2" transform="translate(49 42)"/><rect class="d" width="2" height="2" transform="translate(19 31)"/><rect class="d" width="2" height="2" transform="translate(23 53)"/><rect class="d" width="2" height="2" transform="translate(37 37)"/><rect class="d" width="2" height="2" transform="translate(46 25)"/><rect class="d" width="2" height="2" transform="translate(13 43)"/><rect class="d" width="2" height="2" transform="translate(40 50)"/></g></svg>