<svg xmlns="http://www.w3.org/2000/svg" viewBox="0 0 85.375 89.409"><defs><style>.a{fill:#80cbc4;}.b{fill:#fff;}.c{fill:#efc803;}.d{fill:#e4ebed;}.e{fill:#eb5639;}.f{fill:#d84936;}.g{fill:#effafe;}.h{fill:#263238;}.i{fill:#fd0;}.j{fill:#40bdff;}</style></defs><g transform="translate(-14 -7.5)"><path class="a" d="M102.71,88.18l.482,2.726h4.941a2.667,2.667,0,0,0,2.667-2.667V18.814h-6.068a.742.742,0,0,1-.742-.742V12H56.85a2.667,2.667,0,0,0-2.659,2.667V88.243a2.667,2.667,0,0,0,2.66,2.667h30.2l.482-2.726a8.95,8.95,0,1,1,15.182,0Zm-39.937-66.7a.742.742,0,0,1,.742-.742H99.62a.742.742,0,0,1,0,1.484H63.515A.742.742,0,0,1,62.773,21.477ZM56.716,59.515h42.9a.742.742,0,0,1,0,1.484h-42.9a.742.742,0,1,1,0-1.484Zm49.7-27.077H60.11a.742.742,0,0,1,0-1.484h46.309a.742.742,0,0,1,0,1.484Zm0,9.522h-49.7a.742.742,0,1,1,0-1.484h49.7a.742.742,0,0,1,0,1.484ZM56.716,50h49.7a.742.742,0,0,1,0,1.484h-49.7a.742.742,0,1,1,0-1.484Z" transform="translate(-25.283 -2.831)"/><path class="b" d="M151.877,199.4a7.459,7.459,0,1,0-5.282-2.185A7.467,7.467,0,0,0,151.877,199.4Z" transform="translate(-82.038 -111.328)"/><path class="c" d="M163.6,184.47a3.474,3.474,0,0,0-.556.03,7.459,7.459,0,0,1,0,14.881c.185,0,.371.03.556.03a7.468,7.468,0,0,0,0-14.937Z" transform="translate(-93.758 -111.328)"/><path class="d" d="M197.287,30.37V99.8a2.667,2.667,0,0,1-2.667,2.667h1.855a2.667,2.667,0,0,0,2.667-2.667V30.37Z" transform="translate(-113.624 -14.387)"/><path class="e" d="M171.287,227.777a.742.742,0,0,1,.653-.115l2.507.742-.846-4.777h0c-.345-1.962-.282-1.606-.371-2.036a9.117,9.117,0,0,1-4.97,2.533l.92,5.193Z" transform="translate(-97.042 -134.68)"/><path class="e" d="M145.352,221.65l-1.2,6.806,2.507-.742a.742.742,0,0,1,.653.115l2.1,1.554.916-5.193A9.257,9.257,0,0,1,145.352,221.65Z" transform="translate(-81.875 -134.717)"/><path class="f" d="M179.283,223.617h0l.783,4.418,1.176.349-.846-4.777h0c-.345-1.962-.282-1.606-.371-2.036a12.426,12.426,0,0,1-.964.812Z" transform="translate(-103.836 -134.667)"/><path class="f" d="M147.151,221.65l-.141.809a8.561,8.561,0,0,0,4.006,1.714l-.79,4.473.983.742.916-5.193A9.284,9.284,0,0,1,147.151,221.65Z" transform="translate(-83.674 -134.717)"/><path class="g" d="M192.45,19.117h4.277L192.45,14.84Z" transform="translate(-112.259 -4.617)"/><path class="h" d="M106.493,85.412V15.241a.987.987,0,0,0-.271-.657L99.408,7.771a.968.968,0,0,0-.657-.271H49.019a4.336,4.336,0,0,0-4.329,4.336V85.412a4.336,4.336,0,0,0,4.329,4.336H80.588l-.861,4.878a.927.927,0,0,0,1.176,1.05l3.212-.957,2.689,2a.927.927,0,0,0,1.484-.582l.868-4.926.868,4.926a.927.927,0,0,0,1.465.586l2.693-2,3.212.957a.927.927,0,0,0,1.176-1.05l-.861-4.878h4.451a4.34,4.34,0,0,0,4.332-4.34Zm-6.81-74.759,3.642,3.642H99.683ZM86.719,94.325l-1.855-1.376a.927.927,0,0,0-.816-.145l-2.226.66,1.091-6.18h0a9.058,9.058,0,0,0,4.629,2.307Zm2.433-6.435a7.29,7.29,0,1,0-.007,0ZM94.264,92.8a.924.924,0,0,0-.816.145l-1.855,1.38L90.758,89.6h0a9.273,9.273,0,0,0,4.625-2.315h0l1.094,6.187Zm3.116-4.915-.441-2.5a9.136,9.136,0,1,0-15.579,0l-.441,2.5h-31.9a2.481,2.481,0,0,1-2.474-2.481V11.836a2.481,2.481,0,0,1,2.474-2.481H97.828v5.887a.927.927,0,0,0,.927.927h5.883V85.412a2.481,2.481,0,0,1-2.481,2.481Z" transform="translate(-19.306)"/><path class="h" d="M77.757,36.9h36.105a.927.927,0,1,0,0-1.855H77.757a.927.927,0,0,0,0,1.855Z" transform="translate(-39.525 -17.331)"/><path class="h" d="M114.887,62.6H68.577a.927.927,0,0,0,0,1.855h46.309a.927.927,0,1,0,0-1.855Z" transform="translate(-33.75 -34.662)"/><path class="h" d="M109.131,88.27h-49.7a.927.927,0,1,0,0,1.855h49.7a.927.927,0,0,0,0-1.855Z" transform="translate(-27.994 -50.811)"/><path class="h" d="M109.131,113.94h-49.7a.927.927,0,1,0,0,1.855h49.7a.927.927,0,0,0,0-1.855Z" transform="translate(-27.994 -66.959)"/><path class="h" d="M102.332,139.6h-42.9a.927.927,0,1,0,0,1.855h42.9a.927.927,0,1,0,0-1.855Z" transform="translate(-27.994 -83.101)"/><path class="i" d="M24.08,85.1H22.6V83.621a.371.371,0,0,0-.742,0V85.1H20.371a.371.371,0,1,0,0,.742h1.484V87.33a.371.371,0,1,0,.742,0V85.846H24.08a.371.371,0,0,0,0-.742Z" transform="translate(-3.774 -47.653)"/><path class="i" d="M18.08,186.325H16.6v-1.484a.371.371,0,1,0-.742,0v1.484H14.371a.371.371,0,1,0,0,.742h1.484v1.484a.371.371,0,0,0,.742,0v-1.484H18.08a.371.371,0,1,0,0-.742Z" transform="translate(0 -111.328)"/><path class="j" d="M30.57,19.095H29.086V17.611a.371.371,0,1,0-.742,0v1.484H26.861a.371.371,0,0,0,0,.742h1.484V21.32a.371.371,0,0,0,.742,0V19.836H30.57a.371.371,0,1,0,0-.742Z" transform="translate(-7.857 -6.127)"/><path class="j" d="M228.08,91.1H226.6V89.621a.371.371,0,1,0-.742,0V91.1h-1.484a.371.371,0,0,0,0,.742h1.484V93.33a.371.371,0,1,0,.742,0V91.846h1.484a.371.371,0,1,0,0-.742Z" transform="translate(-132.107 -51.427)"/><path class="i" d="M232.226,155.051a2.226,2.226,0,1,1,2.226-2.226,2.226,2.226,0,0,1-2.226,2.226Zm0-3.709a1.484,1.484,0,1,0,1.484,1.484A1.484,1.484,0,0,0,232.226,151.342Z" transform="translate(-135.881 -90.021)"/><path class="i" d="M234.4,29.381a2.226,2.226,0,1,1,2.226-2.226A2.226,2.226,0,0,1,234.4,29.381Zm0-3.709a1.484,1.484,0,1,0,1.484,1.484A1.484,1.484,0,0,0,234.4,25.672Z" transform="translate(-137.246 -10.965)"/><path class="j" d="M30.08,221.855h-.961l.679-.679a.371.371,0,0,0-.523-.523l-.679.679v-.961a.371.371,0,1,0-.742,0v.961l-.679-.679a.371.371,0,0,0-.523.523l.679.679h-.961a.371.371,0,1,0,0,.742h.961l-.679.679a.371.371,0,0,0,.523.523l.679-.679v.961a.371.371,0,0,0,.742,0v-.961l.679.679a.371.371,0,0,0,.523-.523l-.679-.679h.961a.371.371,0,1,0,0-.742Z" transform="translate(-7.549 -133.679)"/></g></svg>