<svg xmlns="http://www.w3.org/2000/svg" viewBox="0 0 62 62"><defs><style>.a{fill:#fff;}.b{fill:#3f3a34;}.c{fill:#80cbc4;}</style></defs><g transform="translate(-1 -1)"><path class="a" d="M62,38V26l-6.16-1.54a24.813,24.813,0,0,0-1.655-3.98l3.27-5.45L48.97,6.545l-5.45,3.27A24.813,24.813,0,0,0,39.54,8.16L38,2H26L24.46,8.16a24.813,24.813,0,0,0-3.98,1.655l-5.45-3.27L6.545,15.03l3.27,5.45A24.813,24.813,0,0,0,8.16,24.46L2,26V38l6.16,1.54a24.813,24.813,0,0,0,1.655,3.98l-3.27,5.45,8.485,8.485,5.45-3.27a24.813,24.813,0,0,0,3.98,1.655L26,62H38l1.54-6.16a24.813,24.813,0,0,0,3.98-1.655l5.45,3.27,8.485-8.485-3.27-5.45a24.813,24.813,0,0,0,1.655-3.98ZM32,53A21,21,0,1,1,53,32,21,21,0,0,1,32,53Z"/><path class="b" d="M38.781,63H25.219l-1.595-6.382a25.854,25.854,0,0,1-3.1-1.291l-5.646,3.388L5.837,49.678l1.414-1.414L15.185,56.2l5.26-3.157.5.259a23.764,23.764,0,0,0,3.819,1.587l.533.169L26.781,61H37.219l1.487-5.945.533-.169A23.765,23.765,0,0,0,43.058,53.3l.5-.259,5.26,3.157L56.2,48.815l-3.157-5.26.259-.5a23.892,23.892,0,0,0,1.588-3.819l.168-.534L61,37.219V26.781l-5.945-1.487-.169-.533A23.764,23.764,0,0,0,53.3,20.942l1.773-.924a25.967,25.967,0,0,1,1.546,3.606L63,25.219V38.781l-6.382,1.6a25.882,25.882,0,0,1-1.291,3.1l3.388,5.646-9.589,9.589L43.48,55.327a25.854,25.854,0,0,1-3.1,1.291Z"/><path class="b" d="M8.928,43.982a26.106,26.106,0,0,1-1.546-3.606L1,38.781V25.219l6.382-1.595a25.854,25.854,0,0,1,1.291-3.1L5.285,14.874l9.589-9.589L20.52,8.673a25.854,25.854,0,0,1,3.1-1.291L25.219,1H38.781l1.6,6.382a25.854,25.854,0,0,1,3.1,1.291l5.646-3.388,9.037,9.037-1.414,1.414L48.815,7.8l-5.26,3.157-.5-.259a23.764,23.764,0,0,0-3.819-1.587l-.533-.169L37.219,3H26.781L25.294,8.945l-.533.169A23.764,23.764,0,0,0,20.942,10.7l-.5.259L15.185,7.8,7.8,15.185l3.157,5.26-.259.5a23.764,23.764,0,0,0-1.587,3.819l-.169.533L3,26.781V37.219l5.945,1.486.168.534A23.892,23.892,0,0,0,10.7,43.058Z"/><path class="b" d="M32,54A22,22,0,1,1,54,32,22.025,22.025,0,0,1,32,54Zm0-42A20,20,0,1,0,52,32,20.023,20.023,0,0,0,32,12Z"/><rect class="b" width="2" height="2" transform="translate(31 5)"/><rect class="b" width="2" height="2" transform="translate(12.201 13.615) rotate(-45)"/><rect class="b" width="2" height="2" transform="translate(5 31)"/><rect class="b" width="2" height="2" transform="translate(12.201 50.385) rotate(-45)"/><rect class="b" width="2" height="2" transform="translate(31 57)"/><rect class="b" width="2" height="2" transform="translate(48.97 50.385) rotate(-45)"/><rect class="b" width="2" height="2" transform="translate(57 31)"/><rect class="b" width="2" height="2" transform="translate(48.97 13.615) rotate(-45)"/><path class="b" d="M38,38H26V26H38ZM28,36h8V28H28Z"/><path class="c" d="M42,22H37V19H35v3H33V19H31v3H29V19H27v3H22v5H19v2h3v2H19v2h3v2H19v2h3v5h5v3h2V42h2v3h2V42h2v3h2V42h5V37h3V35H42V33h3V31H42V29h3V27H42ZM40,40H24V24H40Z"/><rect class="c" width="2" height="2" transform="translate(27 15)"/><rect class="c" width="2" height="2" transform="translate(31 15)"/><rect class="c" width="2" height="2" transform="translate(35 15)"/><rect class="c" width="2" height="2" transform="translate(15 35)"/><rect class="c" width="2" height="2" transform="translate(15 31)"/><rect class="c" width="2" height="2" transform="translate(15 27)"/><rect class="c" width="2" height="2" transform="translate(35 47)"/><rect class="c" width="2" height="2" transform="translate(31 47)"/><rect class="c" width="2" height="2" transform="translate(27 47)"/><rect class="c" width="2" height="2" transform="translate(47 27)"/><rect class="c" width="2" height="2" transform="translate(47 31)"/><rect class="c" width="2" height="2" transform="translate(47 35)"/></g></svg>