<svg xmlns="http://www.w3.org/2000/svg" xmlns:xlink="http://www.w3.org/1999/xlink" viewBox="0 0 345.569 207.844"><defs><style>.a{fill:#fff;stroke:#242323;stroke-width:5px;}.b{fill:#1c1b1b;stroke:#1c1b1b;stroke-width:8px;}.c{fill:#303030;}.d{fill:#d6d6d6;}.e{stroke:none;}.f,.g{fill:none;}.g{clip-path:url(#b);}</style><clipPath id="b"><use xlink:href="#a"/></clipPath></defs><g transform="translate(-670 -317.156)"><g class="a" transform="translate(670 317.156)"><rect class="e" width="345.569" height="177.37" rx="17"/><rect class="f" x="2.5" y="2.5" width="340.569" height="172.37" rx="14.5"/></g><g class="b" transform="translate(783.623 494.527)"><rect class="e" width="126.16" height="30.473"/><rect class="f" x="4" y="4" width="118.16" height="22.473"/></g><g class="b" transform="translate(731.905 518.749)"><rect id="a" class="e" width="221.76" height="6.251" rx="3.125"/><path class="g" d="M0,2.2509326934814453h221.7598419189453M217.7598419189453,0v6.250932693481445M221.7598419189453,4h-221.7598419189453M4,6.250932693481445v-6.250932693481445"/></g><rect class="c" width="16.456" height="155.492" transform="translate(682.538 326.533)"/><rect class="d" width="145.75" height="135.958" rx="14" transform="translate(847.094 335.909)"/><rect class="d" width="120.675" height="5.47" rx="2.735" transform="translate(706.046 335.909)"/><rect class="d" width="54.852" height="9.376" rx="4.688" transform="translate(706.046 343.723)"/><rect class="d" width="75.226" height="9.376" rx="4.688" transform="translate(706.046 355.443)"/><rect class="d" width="43.098" height="9.376" rx="4.688" transform="translate(783.623 355.443)"/><rect class="d" width="120.675" height="5.47" rx="2.735" transform="translate(706.046 373.415)"/><rect class="d" width="54.852" height="9.376" rx="4.688" transform="translate(706.046 381.229)"/><rect class="d" width="75.226" height="9.376" rx="4.688" transform="translate(706.046 392.949)"/><rect class="d" width="43.098" height="9.376" rx="4.688" transform="translate(783.623 392.949)"/><rect class="d" width="120.675" height="5.47" rx="2.735" transform="translate(706.046 410.92)"/><rect class="d" width="54.852" height="9.376" rx="4.688" transform="translate(706.046 418.734)"/><rect class="d" width="75.226" height="9.376" rx="4.688" transform="translate(706.046 430.455)"/><rect class="d" width="43.098" height="9.376" rx="4.688" transform="translate(783.623 430.455)"/><rect class="d" width="120.675" height="5.47" rx="2.735" transform="translate(703.695 448.426)"/><rect class="d" width="54.852" height="9.376" rx="4.688" transform="translate(703.695 456.24)"/><rect class="d" width="75.226" height="9.376" rx="4.688" transform="translate(703.695 467.96)"/><rect class="d" width="43.098" height="9.376" rx="4.688" transform="translate(781.272 467.96)"/></g></svg>