<svg xmlns="http://www.w3.org/2000/svg" viewBox="0 0 103.467 103.467"><defs><style>.a{fill:#80cbc4;}.b{fill:#3f3a34;}.c{fill:#e56565;}</style></defs><g transform="translate(-1 -1)"><g transform="translate(31.039 32.708)"><path class="a" d="M59.052,60.052H22.338A3.337,3.337,0,0,1,19,56.714V23.338A3.337,3.337,0,0,1,22.338,20H59.052a3.337,3.337,0,0,1,3.338,3.338V56.714A3.337,3.337,0,0,1,59.052,60.052Z" transform="translate(-19 -20)"/></g><g transform="translate(29.37 31.039)"><path class="b" d="M59.721,19H23.006A5.013,5.013,0,0,0,18,24.006V57.383a5.013,5.013,0,0,0,5.006,5.006H59.721a5.013,5.013,0,0,0,5.006-5.006V24.006A5.013,5.013,0,0,0,59.721,19Zm1.669,5.006v8.344H56.383V29.013H49.708V22.338h3.338v3.338h3.338V22.338h3.338A1.671,1.671,0,0,1,61.389,24.006ZM56.383,42.364h5.006V45.7H56.383Zm0-3.338V35.688h5.006v3.338ZM39.695,52.376v6.675H36.357V52.376Zm3.338,0H46.37v6.675H43.032ZM29.682,49.039V32.351H53.045V49.039H29.682ZM43.032,29.013V22.338H46.37v6.675Zm-3.338,0H36.357V22.338h3.338ZM23.006,22.338h3.338v3.338h3.338V22.338h3.338v6.675H26.344v3.338H21.338V24.006A1.671,1.671,0,0,1,23.006,22.338ZM26.344,45.7H21.338V42.364h5.006Zm0-6.675H21.338V35.688h5.006ZM21.338,57.383V49.039h5.006v3.338h6.675v6.675H29.682V55.714H26.344v3.338H23.006A1.671,1.671,0,0,1,21.338,57.383Zm38.383,1.669H56.383V55.714H53.045v3.338H49.708V52.376h6.675V49.039h5.006v8.344A1.671,1.671,0,0,1,59.721,59.052Z" transform="translate(-18 -19)"/><path class="b" d="M27,39.013H43.688V29H27Zm3.338-6.675H40.351v3.338H30.338Z" transform="translate(-11.981 -12.312)"/></g><g transform="translate(54.402 77.766)"><rect class="c" width="3.338" height="20.026"/></g><g transform="translate(54.402 101.129)"><rect class="c" width="3.338" height="3.338"/></g><g transform="translate(47.727 77.766)"><rect class="c" width="3.338" height="20.026"/></g><g transform="translate(47.727 101.129)"><rect class="c" width="3.338" height="3.338"/></g><g transform="translate(17.688 77.766)"><path class="c" d="M37.7,63.688H11V60.351H34.364V47H37.7Z" transform="translate(-11 -47)"/></g><g transform="translate(11.013 91.117)"><rect class="c" width="3.338" height="3.338"/></g><g transform="translate(7.675 77.766)"><path class="c" d="M35.039,57.013H5V53.675H31.7V47h3.338Z" transform="translate(-5 -47)"/></g><g transform="translate(1 84.441)"><rect class="c" width="3.338" height="3.338"/></g><g transform="translate(61.078 77.766)"><path class="c" d="M63.7,63.688H37V47h3.338V60.351H63.7Z" transform="translate(-37 -47)"/></g><g transform="translate(91.117 91.117)"><rect class="c" width="3.338" height="3.338"/></g><g transform="translate(67.753 77.766)"><path class="c" d="M71.039,57.013H41V47h3.338v6.675h26.7Z" transform="translate(-41 -47)"/></g><g transform="translate(101.129 84.441)"><rect class="c" width="3.338" height="3.338"/></g><g transform="translate(47.727 7.675)"><rect class="c" width="3.338" height="20.026"/></g><g transform="translate(47.727 1)"><rect class="c" width="3.338" height="3.338"/></g><g transform="translate(54.402 7.675)"><rect class="c" width="3.338" height="20.026"/></g><g transform="translate(54.402 1)"><rect class="c" width="3.338" height="3.338"/></g><g transform="translate(61.078 11.013)"><path class="c" d="M40.338,23.688H37V7H63.7v3.338H40.338Z" transform="translate(-37 -7)"/></g><g transform="translate(91.117 11.013)"><rect class="c" width="3.338" height="3.338"/></g><g transform="translate(67.753 17.688)"><path class="c" d="M44.338,21.013H41V11H71.039v3.338h-26.7Z" transform="translate(-41 -11)"/></g><g transform="translate(101.129 17.688)"><rect class="c" width="3.338" height="3.338"/></g><g transform="translate(17.688 11.013)"><path class="c" d="M37.7,23.688H34.364V10.338H11V7H37.7Z" transform="translate(-11 -7)"/></g><g transform="translate(11.013 11.013)"><rect class="c" width="3.338" height="3.338"/></g><g transform="translate(7.675 17.688)"><path class="c" d="M35.039,21.013H31.7V14.338H5V11H35.039Z" transform="translate(-5 -11)"/></g><g transform="translate(1 17.688)"><rect class="c" width="3.338" height="3.338"/></g></g></svg>